# Blender 4.1.1
# www.blender.org
mtllib untitled.mtl
o Body
v 0.000000 0.000000 0.800000
v 0.000000 0.800000 0.800000
v 0.000000 0.000000 -0.800000
v 0.000000 0.800000 -0.800000
v 2.000000 0.000000 0.800000
v 2.000000 0.800000 0.800000
v 2.000000 0.000000 -0.800000
v 2.000000 0.800000 -0.800000
v 0.000000 -0.000000 -0.000000
v 1.800000 -0.000000 -0.000000
v 0.000000 1.000000 0.000000
v 1.800000 1.000000 0.000000
v 2.200000 1.000000 0.800000
v 2.200000 1.000000 -0.800000
v 2.200000 1.600000 0.800000
v 2.200000 1.600000 -0.800000
v 2.200000 0.000000 -0.800000
v 2.200000 0.000000 -1.400000
v 2.200000 1.400000 -0.800000
v 2.200000 1.400000 -1.400000
v 1.899999 -0.150000 1.750000
v 1.899999 0.450000 1.750000
v 1.899999 -0.150000 0.750000
v 1.899999 0.450000 0.750000
v 0.499999 -0.198331 1.750000
v 0.499999 0.401669 1.750000
v 0.499999 -0.198331 0.750000
v 0.499999 0.401669 0.750000
v -2.400000 -0.000000 -0.000000
v 0.000000 -0.000000 -0.000000
v -2.400000 1.000000 0.000000
v 0.000000 1.000000 0.000000
v 3.000000 1.000000 -0.800000
v 3.000000 -0.000000 -0.800000
v 3.000000 1.000000 0.800000
v 3.000000 -0.000000 0.800000
v 2.000000 1.000000 -0.800000
v 2.000000 -0.000000 -0.800000
v 2.000000 1.000000 0.800000
v 2.000000 -0.000000 0.800000
v 2.200000 -0.000000 1.400000
v 2.200000 -0.000000 0.800000
v 2.200000 1.400000 1.400000
v 2.200000 1.400000 0.800000
v 1.900001 -0.150000 -1.750000
v 1.900001 0.450000 -1.750000
v 1.900001 -0.150000 -0.750000
v 1.900001 0.450000 -0.750000
v 0.500001 -0.200000 -1.750000
v 0.500001 0.400000 -1.750000
v 0.500001 -0.200000 -0.750000
v 0.500001 0.400000 -0.750000
vn -0.3369 0.8421 0.4211
vn -0.3369 -0.8421 -0.4211
vn -0.3368 -0.8422 0.4211
vn -0.3368 0.8422 -0.4211
vn 0.3368 -0.8422 -0.4211
vn 0.3369 0.8421 -0.4211
vn 0.3369 -0.8421 0.4211
vn 0.3368 0.8422 0.4211
vn -0.0000 -0.0000 1.0000
vn 1.0000 -0.0000 -0.0000
vn -1.0000 -0.0000 -0.0000
vn -0.3369 0.8422 -0.4211
vn 0.3369 0.8422 0.4211
vn -0.3369 -0.8422 0.4211
vn 0.3369 -0.8422 -0.4211
vt 0.562500 0.671875
vt 0.437500 0.609375
vt 0.562500 0.609375
vt 0.437500 0.671875
vt 0.281250 0.609375
vt 0.281250 0.671875
vt 0.156250 0.609375
vt 0.156250 0.671875
vt 0.000000 0.609375
vt 0.406250 0.828125
vt 0.281250 0.828125
vt 0.281250 0.828125
vt 0.171875 0.515625
vt 0.031250 0.593750
vt 0.031250 0.515625
vt 0.171875 0.375000
vt 0.046875 0.421875
vt 0.046875 0.375000
vt 0.218750 0.265625
vt 0.171875 0.265625
vt 0.078125 0.718750
vt 0.031250 0.796875
vt 0.031250 0.718750
vt 0.218750 0.437500
vt 0.031250 0.437500
vt 0.203125 0.984375
vt 0.078125 0.906250
vt 0.203125 0.906250
vt 0.000000 0.828125
vt 0.078125 0.828125
vt 0.406250 0.906250
vt 0.406250 0.828125
vt 0.328125 0.984375
vt 0.203125 0.984375
vt 0.203125 0.828125
vt 0.281250 0.906250
vt 0.046875 0.265625
vt 0.000000 0.375000
vt 0.000000 0.265625
vt 0.125000 0.718750
vt 0.078125 0.796875
vt 0.000000 0.671875
vt 0.406250 0.671875
vt 0.156250 0.828125
vt 0.171875 0.593750
vt 0.171875 0.421875
vt 0.218750 0.375000
vt 0.218750 0.515625
vt 0.078125 0.984375
vt 0.000000 0.906250
vt 0.328125 0.906250
vt 0.125000 0.796875
s 1
usemtl Axolotl
f 2/1/1 3/2/2 1/3/3
f 4/4/4 7/5/5 3/2/2
f 8/6/6 5/7/7 7/5/5
f 6/8/8 1/9/3 5/7/7
f 7/6/5 1/10/3 3/11/2
f 4/12/4 6/8/8 8/6/6
f 10/13/9 11/14/9 9/15/9
f 14/16/10 15/17/10 13/18/10
f 18/19/10 19/16/10 17/20/10
f 22/21/11 23/22/11 21/23/11
f 26/21/11 27/22/11 25/23/11
f 30/24/9 31/15/9 29/25/9
f 37/26/12 35/27/13 33/28/6
f 35/27/13 40/29/14 36/30/7
f 39/31/1 38/12/2 40/32/14
f 34/28/15 40/33/14 38/34/2
f 33/28/6 36/30/7 34/35/15
f 37/36/12 34/35/15 38/12/2
f 42/37/10 43/38/10 41/39/10
f 46/40/10 47/41/10 45/21/10
f 50/40/10 51/41/10 49/21/10
f 2/1/1 4/4/4 3/2/2
f 4/4/4 8/6/6 7/5/5
f 8/6/6 6/8/8 5/7/7
f 6/8/8 2/42/1 1/9/3
f 7/6/5 5/43/7 1/10/3
f 4/12/4 2/44/1 6/8/8
f 10/13/9 12/45/9 11/14/9
f 14/16/10 16/46/10 15/17/10
f 18/19/10 20/47/10 19/16/10
f 22/21/11 24/41/11 23/22/11
f 26/21/11 28/41/11 27/22/11
f 30/24/9 32/48/9 31/15/9
f 37/26/12 39/49/1 35/27/13
f 35/27/13 39/50/1 40/29/14
f 39/31/1 37/36/12 38/12/2
f 34/28/15 36/51/7 40/33/14
f 33/28/6 35/27/13 36/30/7
f 37/36/12 33/28/6 34/35/15
f 42/37/10 44/18/10 43/38/10
f 46/40/10 48/52/10 47/41/10
f 50/40/10 52/52/10 51/41/10
